<svg width="34" height="32" viewBox="0 0 34 32" fill="none" xmlns="http://www.w3.org/2000/svg">
<g clip-path="url(#clip0)">
<path d="M30.6017 6.32025C30.2516 5.83626 29.9014 5.35227 29.5513 4.86829L10.1535 15.8617L0.769777 10.5379C0.559693 11.1601 0.419637 11.7133 0.349609 12.3355L10.2236 17.936L30.6017 6.32025Z" fill="#1A9F29"/>
<path d="M10.1541 20.0101L0.070028 14.2714C0 14.6171 0 15.0319 0 15.3776C0 24.4351 7.42297 31.8333 16.6667 31.8333C25.8403 31.8333 33.3333 24.5043 33.3333 15.3776C33.3333 12.6811 32.7031 10.1229 31.5126 7.9104L10.1541 20.0101Z" fill="#1A9F29"/>
<path d="M28.2208 3.48539C27.7306 3.0014 27.2404 2.65569 26.7502 2.24084L10.1536 11.7132L2.17041 7.21901C1.8903 7.703 1.61019 8.25613 1.33008 8.80926L10.0836 13.7874L28.2208 3.48539Z" fill="#1A9F29"/>
<path d="M25.0692 1.1346C24.4389 0.788897 23.8087 0.443191 23.1084 0.166626L10.1532 7.56473L4.34087 4.3151C3.9207 4.72994 3.57056 5.21393 3.15039 5.69792L10.0832 9.63897L25.0692 1.1346Z" fill="#1A9F29"/>
</g>
<defs>
<clipPath id="clip0">
<rect width="33.3333" height="31.6667" fill="white" transform="translate(0 0.166626)"/>
</clipPath>
</defs>
</svg>
