<svg width="223" height="64" fill="none" xmlns="http://www.w3.org/2000/svg"><path d="M39.697 29.122h-9.72v-2.958l1.72-.624c2.79-1.017 3.837-1.757 3.837-2.589 0-.416-.21-.97-2.14-.97-1.046 0-2.208.138-3.115.439V19.46c1.535-.323 2.883-.416 4.278-.416 4.651 0 5.07 1.872 5.07 3.005 0 1.572-1.093 2.773-3.953 3.86l-.768.3v.023h4.79v2.89zM29.79 35.756c0-3.56 1.836-5.154 5.092-5.154 3.58 0 5.162 1.664 5.162 5.154 0 3.536-1.837 5.13-5.116 5.13-3.372 0-5.139-1.594-5.139-5.13zm6.487.07c0-1.503-.21-2.474-1.395-2.474-1.14 0-1.326 1.017-1.326 2.473 0 1.502.28 2.334 1.395 2.334 1.023-.023 1.326-.74 1.326-2.334zM39.697 52.236h-9.72v-2.959l1.72-.624c2.79-1.017 3.837-1.757 3.837-2.589 0-.416-.21-.97-2.14-.97-1.046 0-2.208.138-3.115.439v-2.959c1.535-.323 2.883-.416 4.278-.416 4.651 0 5.07 1.872 5.07 3.005 0 1.572-1.093 2.774-3.953 3.86l-.768.3v.023h4.79v2.89zM29.79 58.87c0-3.56 1.836-5.155 5.092-5.155 3.58 0 5.162 1.664 5.162 5.154 0 3.536-1.837 5.131-5.116 5.131-3.372 0-5.139-1.595-5.139-5.13zm6.487.068c0-1.502-.21-2.473-1.395-2.473-1.14 0-1.326 1.017-1.326 2.473 0 1.503.28 2.335 1.395 2.335 1.023-.023 1.326-.74 1.326-2.335z" fill="#72C3D7"/><path d="M69.76 0H0v2.89h69.76V0zM0 19.646v2.89h23.253V63.56h2.907V19.646H0zM43.602 19.646v43.915h2.906V22.535h23.254v-2.889h-26.16z" fill="#00C08B"/><path d="M65.993 16.18c3.093 0 3.976-1.272 3.976-2.844 0-1.11-.674-2.126-2.371-2.172v-.047c1.348-.23 2.07-.97 2.07-2.172 0-1.572-1.14-2.473-3.582-2.473H60.18v9.707h5.813zm-2.302-3.791h1.395c.93 0 1.302.092 1.302.624 0 .485-.348.624-1.418.624h-1.279v-1.248zm0-3.352h1.372c.884 0 1.163.185 1.163.578 0 .508-.326.647-1.233.647h-1.302V9.037zm-10.51 7.35c3.604 0 5.766-1.525 5.766-5.062 0-3.212-1.86-5.061-5.883-5.061-3.627 0-5.767 1.71-5.767 5.061 0 3.352 2.093 5.062 5.884 5.062zm0-2.82c-1.396 0-2.186-.809-2.186-2.242 0-1.34.628-2.242 2.07-2.242 1.51 0 2.162.856 2.162 2.242.023 1.503-.651 2.242-2.046 2.242zM42.157 16.18c3.093 0 4.279-1.41 4.279-3.282 0-2.242-1.535-2.958-3.883-2.958h-2.21V9.29h5.326v-2.82h-8.837v9.708h5.325zm-1.93-4.09h1.512c.907 0 1.116.253 1.116.646 0 .486-.302.648-1.279.648h-1.349v-1.295zm-4.93-5.617h-4.906l-1.976 5.801-1.977-5.801h-5.116v9.707h3.372v-5.801l2 5.801h3.186l2-5.87v5.87h3.371V6.472h.047zm-20.695 2.38l.977 3.051h-1.954l.977-3.05zm2.372 7.327h3.534l-3.302-9.707h-5.069l-3.325 9.707h3.441l.466-1.456h3.767l.488 1.456zM6.557 9.523H9.58V6.472H0v3.05h3.046v6.657h3.511V9.523z" fill="#72C3D7"/><path d="M207.211 51.68c3.093 0 3.976-1.27 3.976-2.842 0-1.11-.674-2.127-2.372-2.173v-.046c1.349-.231 2.07-.971 2.07-2.173 0-1.572-1.139-2.473-3.581-2.473h-5.906v9.708h5.813zm-2.279-3.813h1.395c.93 0 1.302.092 1.302.624 0 .485-.348.624-1.418.624h-1.279v-1.248zm0-3.351h1.372c.884 0 1.163.184 1.163.577 0 .509-.326.647-1.233.647h-1.302v-1.224zm-10.603 7.373c3.604 0 5.766-1.526 5.766-5.062 0-3.213-1.86-5.062-5.883-5.062-3.627 0-5.767 1.71-5.767 5.062.024 3.328 2.093 5.062 5.884 5.062zm.023-2.843c-1.395 0-2.186-.81-2.186-2.242 0-1.34.628-2.242 2.07-2.242 1.511 0 2.162.855 2.162 2.242 0 1.502-.674 2.242-2.046 2.242zm-9.604-4.022h3.023v-3.051h-9.58v3.051h3.046v6.657h3.511v-6.657zm-11.766-.693l.977 3.05h-1.954l.977-3.05zm2.372 7.35h3.534l-3.302-9.708h-5.069l-3.325 9.708h3.441l.465-1.457h3.767l.489 1.457zm-16.859-2.959c.442-.925.744-1.988.814-3.56 0-.046 0-.23.023-.254h2.07v3.837h-2.907v-.023zm7.836 0h-1.418V41.95H156.1l-.023 1.294c-.093 3.005-.396 4.461-1.163 5.455h-1.046v5.131h3.232v-2.173h5.976v2.173h3.232v-5.108h.023zm-13.556-6.749h-3.651l-3.465 5.34v-5.34h-3.511v9.708h3.651l3.465-5.363v5.363h3.511v-9.708zm-19.626 6.749c.442-.925.744-1.988.814-3.56 0-.046 0-.23.023-.254h2.07v3.837h-2.907v-.023zm7.836 0h-1.418V41.95h-8.813l-.023 1.294c-.093 3.005-.396 4.461-1.163 5.455h-1.047v5.131h3.233v-2.173h5.976v2.173h3.232v-5.108h.023zm-13.556-6.749h-3.512v3.351h-3.464v-3.351h-3.512v9.708h3.512V48.26h3.464v3.42h3.512v-9.707zm-17.324 2.358l.976 3.05h-1.953l.977-3.05zm2.372 7.35h3.534l-3.302-9.708h-5.069l-3.325 9.708h3.441l.465-1.457h3.767l.489 1.457zm-15.72-9.708h-3.51v9.708h3.51v-4.6l3.093 4.6h4.069l-3.627-5.178 3.372-4.53H99.71l-2.953 4.553v-4.553zM223 35.871l-3.093-4.992 2.907-4.715h-3.976l-1.512 2.658-1.442-2.658h-4.069l2.744 4.738-2.953 4.97h4.023l1.581-2.774 1.674 2.773H223zm-12.255-9.707h-3.511v9.707h3.511v-9.707zm-8.696 9.707c3.232 0 4.488-1.826 4.488-3.698 0-2.357-1.535-3.582-4.163-3.582h-1.558v-2.45h-3.511v9.707h4.744v.023zm-1.233-4.438h.861c.93 0 1.255.255 1.255.786 0 .486-.302.81-1.279.81h-.837v-1.596zm-5.022-5.27h-4.907l-1.976 5.802-1.977-5.801h-5.116v9.707h3.419V30.07l1.999 5.801h3.186l2-5.87v5.87h3.372v-9.707zm-15.441 0h-3.65l-3.465 5.34v-5.34h-3.512v9.708h3.651l3.465-5.362v5.362h3.511v-9.707zm-11.905 6.357c-.791.3-1.582.508-2.489.508-2.139 0-3.023-.531-3.023-2.01 0-1.642 1.024-2.011 3.023-2.011.721 0 1.791.184 2.489.416v-3.028c-.512-.116-1.651-.44-3.047-.44-4.488 0-6.162 1.92-6.162 5.178 0 3.097 1.721 4.946 5.907 4.946 1.558 0 2.743-.277 3.325-.508V32.52h-.023zm-10.488-6.356h-3.651l-3.464 5.339v-5.34h-3.512v9.708h3.651l3.465-5.362v5.362h3.511v-9.707zm-15.696 9.707c3.093 0 3.977-1.271 3.977-2.843 0-1.11-.675-2.126-2.372-2.172v-.047c1.348-.23 2.069-.97 2.069-2.172 0-1.572-1.139-2.473-3.581-2.473h-5.906v9.707h5.813zm-2.302-3.79h1.395c.93 0 1.303.092 1.303.624 0 .485-.349.624-1.419.624h-1.279V32.08zm0-3.375h1.372c.884 0 1.163.185 1.163.578 0 .509-.326.647-1.233.647h-1.302v-1.225zm-10.255-.162l.977 3.051h-1.953l.976-3.05zm2.372 7.327h3.535l-3.302-9.707h-5.069l-3.326 9.707h3.442l.465-1.456h3.767l.488 1.456zm-17.393-.254c1.255.393 2.767.462 3.65.462 4.349 0 5.14-1.664 5.14-2.958 0-1.272-.861-1.988-2.256-2.127v-.046c1.372-.3 2-1.063 2-2.288 0-1.11-.605-2.681-4.302-2.681-1.651 0-2.907.115-4.093.37v2.935c1.047-.324 2.023-.462 3.186-.462 1.139 0 1.697.162 1.697.554 0 .463-.511.532-1.465.532h-1.93v2.265h2.256c.953 0 1.163.185 1.163.485 0 .37-.396.601-1.954.601-.953 0-2.116-.115-3.092-.508v2.866zM113.5 33.05h-4.767v-.74h3.999V29.77h-3.999v-.762h4.767v-2.82h-8.278v9.707h8.278v-2.843zm-9.767-6.887h-3.511v3.351h-3.465v-3.351h-3.51v9.707h3.51v-3.42h3.465v3.42h3.511v-9.707zM174.354 12.735l.977 3.051h-1.954l.977-3.05zm2.372 7.35h3.534l-3.302-9.707h-5.069l-3.325 9.707h3.441l.465-1.456h3.767l.489 1.456zm-16.789-2.958c.442-.925.744-1.988.814-3.56 0-.046 0-.231.023-.254h2.069v3.837h-2.906v-.023zm7.836 0h-1.418v-6.75h-8.813l-.024 1.295c-.093 3.005-.395 4.46-1.162 5.455h-1.047v5.108h3.233v-2.15h5.999v2.173h3.232v-5.131zm-13.487-6.75h-3.511v3.352h-3.465v-3.351h-3.511v9.707h3.511v-3.42h3.465v3.42h3.511v-9.707zm-17.254 2.358l.977 3.051h-1.953l.976-3.05zm2.372 7.35h3.535l-3.302-9.707h-5.07l-3.325 9.707h3.442l.465-1.456h3.767l.488 1.456zm-9.022-9.707h-4.907l-1.976 5.8-1.977-5.8h-5.116v9.707h3.372v-5.801l2 5.801h3.232l2-5.87v5.87h3.372v-9.707zm-20.952 9.915c3.605 0 5.767-1.525 5.767-5.062 0-3.212-1.86-5.061-5.883-5.061-3.627 0-5.767 1.71-5.767 5.061 0 3.352 2.093 5.062 5.883 5.062zm.024-2.843c-1.396 0-2.186-.809-2.186-2.242 0-1.34.628-2.242 2.069-2.242 1.512 0 2.163.855 2.163 2.242 0 1.502-.674 2.242-2.046 2.242zm-12.697-7.072h-3.51v9.707h3.51v-4.623l3.093 4.6h4.069l-3.627-5.177 3.372-4.53H99.71l-2.953 4.553v-4.53z" fill="#00C08B"/></svg>